<?xml version="1.0" encoding="UTF-8" standalone="no"?>
<svg
   xmlns:dc="http://purl.org/dc/elements/1.1/"
   xmlns:cc="http://creativecommons.org/ns#"
   xmlns:rdf="http://www.w3.org/1999/02/22-rdf-syntax-ns#"
   xmlns:svg="http://www.w3.org/2000/svg"
   xmlns="http://www.w3.org/2000/svg"
   xmlns:sodipodi="http://sodipodi.sourceforge.net/DTD/sodipodi-0.dtd"
   xmlns:inkscape="http://www.inkscape.org/namespaces/inkscape"
   sodipodi:docname="dibujo.svg"
   inkscape:version="1.0 (4035a4fb49, 2020-05-01)"
   id="svg8"
   version="1.1"
   viewBox="0 0 7.9374998 7.9375002"
   height="30"
   width="30">
  <defs
     id="defs2" />
  <sodipodi:namedview
     inkscape:window-maximized="1"
     inkscape:window-y="-4"
     inkscape:window-x="1356"
     inkscape:window-height="749"
     inkscape:window-width="1366"
     inkscape:pagecheckerboard="true"
     inkscape:showpageshadow="false"
     units="px"
     showgrid="false"
     inkscape:document-rotation="0"
     inkscape:current-layer="layer1"
     inkscape:document-units="px"
     inkscape:cy="10.092288"
     inkscape:cx="7.670241"
     inkscape:zoom="7.9195959"
     inkscape:pageshadow="2"
     inkscape:pageopacity="0.0"
     borderopacity="1.0"
     bordercolor="#666666"
     pagecolor="#ffffff"
     id="base" />
  <metadata
     id="metadata5">
    <rdf:RDF>
      <cc:Work
         rdf:about="">
        <dc:format>image/svg+xml</dc:format>
        <dc:type
           rdf:resource="http://purl.org/dc/dcmitype/StillImage" />
        <dc:title></dc:title>
      </cc:Work>
    </rdf:RDF>
  </metadata>
  <g
     id="layer1"
     inkscape:groupmode="layer"
     inkscape:label="Capa 1">
    <rect
       y="-1.7763568e-15"
       x="-2.1649349e-15"
       height="7.9375"
       width="7.9375"
       id="rect833"
       style="fill:#ffffff;fill-opacity:1;fill-rule:evenodd;stroke:none;stroke-width:0.0739588;stroke-linecap:round" />
    <path
       transform="scale(0.26458333)"
       d="M 12.779297 3.75 C 12.451391 3.75 12.1875 4.0138926 12.1875 4.3417969 L 12.1875 12.1875 L 4.3417969 12.1875 C 4.0138915 12.1875 3.75 12.451393 3.75 12.779297 L 3.75 17.220703 C 3.75 17.548609 4.0138926 17.8125 4.3417969 17.8125 L 12.1875 17.8125 L 12.1875 25.658203 C 12.1875 25.986109 12.451393 26.25 12.779297 26.25 L 17.220703 26.25 C 17.548609 26.25 17.8125 25.986107 17.8125 25.658203 L 17.8125 17.8125 L 25.658203 17.8125 C 25.986109 17.8125 26.25 17.548607 26.25 17.220703 L 26.25 12.779297 C 26.25 12.451391 25.986107 12.1875 25.658203 12.1875 L 17.8125 12.1875 L 17.8125 4.3417969 C 17.8125 4.0138916 17.548607 3.75 17.220703 3.75 L 12.779297 3.75 z "
       style="fill:#00d358;fill-opacity:1;fill-rule:evenodd;stroke:#42c41f;stroke-width:0.34803;stroke-linecap:round;stroke-opacity:1"
       id="rect837" />
    <rect
       style="fill:#ffffff;fill-opacity:1;fill-rule:evenodd;stroke:none;stroke-width:0.0739588;stroke-linecap:round"
       id="rect850"
       width="7.9375"
       height="7.9375"
       x="-2.1649349e-15"
       y="-1.7763568e-15" />
    <path
       transform="scale(0.26458333)"
       id="path852"
       style="fill:#00d358;fill-opacity:1;fill-rule:evenodd;stroke:#42c41f;stroke-width:0.34803;stroke-linecap:round;stroke-opacity:1"
       d="M 12.779297 3.75 C 12.451391 3.75 12.1875 4.0138926 12.1875 4.3417969 L 12.1875 12.1875 L 4.3417969 12.1875 C 4.0138915 12.1875 3.75 12.451393 3.75 12.779297 L 3.75 17.220703 C 3.75 17.548609 4.0138926 17.8125 4.3417969 17.8125 L 12.1875 17.8125 L 12.1875 25.658203 C 12.1875 25.986109 12.451393 26.25 12.779297 26.25 L 17.220703 26.25 C 17.548609 26.25 17.8125 25.986107 17.8125 25.658203 L 17.8125 17.8125 L 25.658203 17.8125 C 25.986109 17.8125 26.25 17.548607 26.25 17.220703 L 26.25 12.779297 C 26.25 12.451391 25.986107 12.1875 25.658203 12.1875 L 17.8125 12.1875 L 17.8125 4.3417969 C 17.8125 4.0138916 17.548607 3.75 17.220703 3.75 L 12.779297 3.75 z " />
  </g>
</svg>
