<?xml version="1.0" encoding="UTF-8" standalone="no"?>
<svg
   xmlns:dc="http://purl.org/dc/elements/1.1/"
   xmlns:cc="http://creativecommons.org/ns#"
   xmlns:rdf="http://www.w3.org/1999/02/22-rdf-syntax-ns#"
   xmlns:svg="http://www.w3.org/2000/svg"
   xmlns="http://www.w3.org/2000/svg"
   xmlns:sodipodi="http://sodipodi.sourceforge.net/DTD/sodipodi-0.dtd"
   xmlns:inkscape="http://www.inkscape.org/namespaces/inkscape"
   inkscape:version="1.0 (4035a4fb49, 2020-05-01)"
   sodipodi:docname="icons(inkscape).svg"
   id="svg8"
   version="1.1"
   viewBox="0 0 7.9374998 7.9375002"
   height="30"
   width="30">
  <defs
     id="defs2" />
  <sodipodi:namedview
     inkscape:snap-global="false"
     inkscape:snap-bbox-midpoints="true"
     inkscape:snap-bbox-edge-midpoints="true"
     inkscape:bbox-nodes="true"
     inkscape:bbox-paths="true"
     inkscape:snap-bbox="true"
     inkscape:window-maximized="1"
     inkscape:window-y="-4"
     inkscape:window-x="1356"
     inkscape:window-height="749"
     inkscape:window-width="1366"
     inkscape:pagecheckerboard="true"
     inkscape:showpageshadow="false"
     units="px"
     showgrid="false"
     inkscape:document-rotation="0"
     inkscape:current-layer="layer1"
     inkscape:document-units="px"
     inkscape:cy="680.37993"
     inkscape:cx="-862.52639"
     inkscape:zoom="0.49497475"
     inkscape:pageshadow="2"
     inkscape:pageopacity="0.0"
     borderopacity="1.0"
     bordercolor="#666666"
     pagecolor="#ffffff"
     id="base" />
  <metadata
     id="metadata5">
    <rdf:RDF>
      <cc:Work
         rdf:about="">
        <dc:format>image/svg+xml</dc:format>
        <dc:type
           rdf:resource="http://purl.org/dc/dcmitype/StillImage" />
        <dc:title />
      </cc:Work>
    </rdf:RDF>
  </metadata>
  <g
     id="layer1"
     inkscape:groupmode="layer"
     inkscape:label="Capa 1">
    <g
       id="g1056">
      <rect
         style="fill:#ffffff;fill-opacity:1;fill-rule:evenodd;stroke:none;stroke-width:0.0739588;stroke-linecap:round"
         id="rect833"
         width="7.9375"
         height="7.9375"
         x="-2.1649349e-15"
         y="-1.7763568e-15" />
      <path
         id="rect837"
         style="fill:#00d358;fill-opacity:1;fill-rule:evenodd;stroke:none;stroke-width:0.0920829;stroke-linecap:round"
         d="m 3.381189,0.99218749 c -0.086759,0 -0.1565797,0.0698216 -0.1565797,0.15657961 V 3.2246093 H 1.1487671 c -0.086758,0 -0.15657961,0.069822 -0.15657961,0.1565797 v 1.1751219 c 0,0.086759 0.0698216,0.1565797 0.15657961,0.1565797 h 2.0758422 v 2.0758422 c 0,0.086759 0.069822,0.1565796 0.1565797,0.1565796 h 1.1751219 c 0.086759,0 0.1565797,-0.069822 0.1565797,-0.1565796 V 4.7128906 h 2.0758422 c 0.086759,0 0.1565796,-0.069822 0.1565796,-0.1565797 V 3.381189 c 0,-0.086759 -0.069822,-0.1565797 -0.1565796,-0.1565797 H 4.7128906 V 1.1487671 c 0,-0.086758 -0.069822,-0.15657961 -0.1565797,-0.15657961 z" />
    </g>
    <g
       id="g1052">
      <rect
         y="-1.7763568e-15"
         x="8.7393084"
         height="7.9375"
         width="7.9375"
         id="rect856"
         style="fill:#ffffff;fill-opacity:1;fill-rule:evenodd;stroke:none;stroke-width:0.0739588;stroke-linecap:round" />
      <rect
         y="-4.7128906"
         x="-15.68462"
         height="1.4882812"
         width="5.953125"
         id="rect860"
         style="fill:#e04b4a;fill-opacity:1;fill-rule:evenodd;stroke:none;stroke-width:0.0920829;stroke-linecap:round"
         transform="scale(-1)"
         rx="0.15660344"
         ry="0.15660344" />
    </g>
    <g
       id="g1044">
      <rect
         y="0.4272888"
         x="18.993303"
         height="7.9375"
         width="7.9375"
         id="rect862"
         style="fill:#ffffff;fill-opacity:1;fill-rule:evenodd;stroke:none;stroke-width:0.0739588;stroke-linecap:round" />
      <g
         id="g1013">
        <path
           d="m 22.383442,1.4648165 c -0.08544,0 -0.154194,0.068755 -0.154194,0.1541945 v 2.0442222 h -2.044222 c -0.08544,0 -0.154195,0.068757 -0.154195,0.1541945 v 1.1572221 c 0,0.085441 0.06876,0.1541945 0.154195,0.1541945 h 2.044222 v 2.0442223 c 0,0.085431 0.06876,0.1541945 0.154194,0.1541945 h 1.157223 c 0.08544,0 0.154194,-0.068757 0.154194,-0.1541945 V 5.1288443 h 2.044222 c 0.08544,0 0.154194,-0.068755 0.154194,-0.1541945 V 3.8174277 c 0,-0.085433 -0.06876,-0.1541945 -0.154194,-0.1541945 H 23.694859 V 1.619011 c 0,-0.085433 -0.06876,-0.1541945 -0.154194,-0.1541945 z"
           style="fill:none;fill-opacity:1;fill-rule:evenodd;stroke:#00d358;stroke-width:0.0906803;stroke-linecap:round;stroke-opacity:1"
           id="rect866" />
      </g>
    </g>
    <g
       id="g1048">
      <rect
         style="fill:#ffffff;fill-opacity:1;fill-rule:evenodd;stroke:none;stroke-width:0.0739588;stroke-linecap:round"
         id="rect868"
         width="7.9375"
         height="7.9375"
         x="27.832838"
         y="0.4272888" />
      <rect
         ry="0.14747864"
         rx="0.154218"
         transform="scale(-1)"
         style="fill:none;fill-opacity:1;fill-rule:evenodd;stroke:#e04b4a;stroke-width:0.0886768;stroke-linecap:round;stroke-opacity:1"
         id="rect870"
         width="5.8624449"
         height="1.4015638"
         x="-34.732811"
         y="-5.0968208" />
    </g>
    <rect
       y="12.662203"
       x="7.9375"
       height="7.9375"
       width="7.9375"
       id="rect881"
       style="fill:#ffffff;fill-opacity:1;fill-rule:evenodd;stroke:none;stroke-width:0.0739588;stroke-linecap:round" />
    <rect
       style="fill:#ffffff;fill-opacity:1;fill-rule:evenodd;stroke:none;stroke-width:0.0739588;stroke-linecap:round"
       id="rect875"
       width="7.9375"
       height="7.9375"
       x="-1.7008929"
       y="12.662203" />
    <path
       d="m 2.2678571,13.65439 -2.97656253,3.783822 h 1.45782906 v 2.169303 H 3.7865906 v -2.169303 h 1.457829 z"
       style="fill:#a4a1aa;fill-opacity:1;fill-rule:evenodd;stroke:none;stroke-width:0.138088;stroke-linecap:round;stroke-opacity:1"
       id="rect885" />
    <path
       d="m 10.387517,13.65439 v 2.168749 H 8.9296875 l 2.9765625,3.784376 2.976563,-3.784376 H 13.424984 V 13.65439 Z"
       style="fill:#a4a1aa;fill-opacity:1;fill-rule:evenodd;stroke:none;stroke-width:0.138088;stroke-linecap:round;stroke-opacity:1"
       id="path895" />
    <g
       id="g1039">
      <rect
         style="fill:#ffffff;fill-opacity:1;fill-rule:evenodd;stroke:none;stroke-width:0.0739588;stroke-linecap:round"
         id="rect909"
         width="7.9375"
         height="7.9375"
         x="19.243406"
         y="12.662203" />
      <path
         d="m 23.212156,13.810412 -2.840882,3.611345 h 1.391377 v 2.07042 h 2.899011 v -2.07042 h 1.391376 z"
         style="fill:none;fill-opacity:1;fill-rule:evenodd;stroke:#a4a1aa;stroke-width:0.131793;stroke-linecap:round;stroke-opacity:1"
         id="path913" />
    </g>
    <g
       id="g1035">
      <rect
         y="12.662203"
         x="28.456575"
         height="7.9375"
         width="7.9375"
         id="rect911"
         style="fill:#ffffff;fill-opacity:1;fill-rule:evenodd;stroke:none;stroke-width:0.0739588;stroke-linecap:round" />
      <path
         d="m 30.975815,13.769712 v 2.0699 h -1.391382 l 2.840893,3.611888 2.840894,-3.611888 h -1.391383 v -2.0699 z"
         style="fill:none;fill-opacity:1;fill-rule:evenodd;stroke:#a4a1aa;stroke-width:0.131794;stroke-linecap:round;stroke-opacity:1"
         id="path915" />
    </g>
    <rect
       y="24.473959"
       x="-2.1649349e-15"
       height="7.9375"
       width="7.9375"
       id="rect917"
       style="fill:#ffffff;fill-opacity:1;fill-rule:evenodd;stroke:none;stroke-width:0.0739588;stroke-linecap:round" />
    <rect
       style="fill:#ffffff;fill-opacity:1;fill-rule:evenodd;stroke:none;stroke-width:0.0739588;stroke-linecap:round"
       id="rect919"
       width="7.9375"
       height="7.9375"
       x="7.9375"
       y="24.473959" />
    <path
       id="path921"
       style="fill:#758f49;fill-opacity:1;fill-rule:evenodd;stroke:none;stroke-width:0.128882;stroke-linecap:round;stroke-opacity:1"
       d="m 3.96875,25.664657 -2.778125,3.531567 h 1.3606404 v 2.024683 h 2.8349691 v -2.024683 h 1.3606404 z" />
    <path
       id="path923"
       style="fill:#758f49;fill-opacity:1;fill-rule:evenodd;stroke:none;stroke-width:0.128882;stroke-linecap:round;stroke-opacity:1"
       d="m 10.488765,25.664657 v 2.024166 H 9.1281249 l 2.7781251,3.532084 2.778125,-3.532084 h -1.360641 v -2.024166 z" />
    <rect
       style="fill:#ffffff;fill-opacity:1;fill-rule:evenodd;stroke:none;stroke-width:0.0739588;stroke-linecap:round"
       id="rect925"
       width="7.9375"
       height="7.9375"
       x="18.898809"
       y="24.473959" />
    <rect
       y="24.473959"
       x="26.836309"
       height="7.9375"
       width="7.9375"
       id="rect927"
       style="fill:#ffffff;fill-opacity:1;fill-rule:evenodd;stroke:none;stroke-width:0.0739588;stroke-linecap:round" />
    <path
       d="m 22.86756,25.664657 -2.778125,3.531567 h 1.36064 v 2.024683 h 2.834969 v -2.024683 h 1.36064 z"
       style="fill:none;fill-opacity:1;fill-rule:evenodd;stroke:#758f49;stroke-width:0.128882;stroke-linecap:round;stroke-opacity:1"
       id="path929" />
    <path
       d="m 29.387575,25.664657 v 2.024166 h -1.360641 l 2.778126,3.532084 2.778125,-3.532084 h -1.360641 v -2.024166 z"
       style="fill:none;fill-opacity:1;fill-rule:evenodd;stroke:#758f49;stroke-width:0.128882;stroke-linecap:round;stroke-opacity:1"
       id="path931" />
    <rect
       style="fill:#ffffff;fill-opacity:1;fill-rule:evenodd;stroke:none;stroke-width:0.0739588;stroke-linecap:round"
       id="rect933"
       width="7.9375"
       height="7.9375"
       x="-2.1649349e-15"
       y="51.31575" />
    <rect
       y="-4.7128906"
       x="52.307938"
       height="1.4882812"
       width="5.953125"
       id="rect935"
       style="fill:#00d358;fill-opacity:1;fill-rule:evenodd;stroke:none;stroke-width:0.0920829;stroke-linecap:round"
       transform="rotate(90)"
       rx="0.15660344"
       ry="0.15660344" />
    <rect
       ry="0.15660344"
       rx="0.15660344"
       transform="scale(-1)"
       style="fill:#00d358;fill-opacity:1;fill-rule:evenodd;stroke:none;stroke-width:0.0920829;stroke-linecap:round"
       id="rect937"
       width="5.953125"
       height="1.4882812"
       x="-6.9453125"
       y="-56.028641" />
    <rect
       y="51.31575"
       x="7.9375"
       height="7.9375"
       width="7.9375"
       id="rect939"
       style="fill:#ffffff;fill-opacity:1;fill-rule:evenodd;stroke:none;stroke-width:0.0739588;stroke-linecap:round" />
    <rect
       y="-56.028641"
       x="-14.882812"
       height="1.4882812"
       width="5.953125"
       id="rect941"
       style="fill:#e04b4a;fill-opacity:1;fill-rule:evenodd;stroke:none;stroke-width:0.0920829;stroke-linecap:round"
       transform="scale(-1)"
       rx="0.15660344"
       ry="0.15660344" />
    <rect
       y="51.743038"
       x="18.993303"
       height="7.9375"
       width="7.9375"
       id="rect943"
       style="fill:#ffffff;fill-opacity:1;fill-rule:evenodd;stroke:none;stroke-width:0.0739588;stroke-linecap:round" />
    <path
       id="path945"
       style="fill:none;fill-opacity:1;fill-rule:evenodd;stroke:#00d358;stroke-width:0.0920829;stroke-linecap:round;stroke-opacity:1"
       d="m 22.374493,52.735375 c -0.08676,0 -0.15658,0.06982 -0.15658,0.156579 v 2.075842 h -2.075842 c -0.08676,0 -0.15658,0.06982 -0.15658,0.15658 v 1.175122 c 0,0.08676 0.06982,0.15658 0.15658,0.15658 h 2.075842 v 2.075842 c 0,0.08675 0.06982,0.156579 0.15658,0.156579 h 1.175122 c 0.08676,0 0.156579,-0.06982 0.156579,-0.156579 v -2.075842 h 2.075842 c 0.08676,0 0.15658,-0.06982 0.15658,-0.15658 v -1.175122 c 0,-0.08675 -0.06982,-0.15658 -0.15658,-0.15658 h -2.075842 v -2.075842 c 0,-0.08675 -0.06982,-0.156579 -0.156579,-0.156579 z" />
    <rect
       style="fill:#ffffff;fill-opacity:1;fill-rule:evenodd;stroke:none;stroke-width:0.0739588;stroke-linecap:round"
       id="rect947"
       width="7.9375"
       height="7.9375"
       x="26.930803"
       y="51.743038" />
    <rect
       ry="0.15660344"
       rx="0.15660344"
       transform="scale(-1)"
       style="fill:none;fill-opacity:1;fill-rule:evenodd;stroke:#e04b4a;stroke-width:0.0920829;stroke-linecap:round;stroke-opacity:1"
       id="rect949"
       width="5.953125"
       height="1.4882812"
       x="-33.876114"
       y="-56.455929" />
    <rect
       y="63.977951"
       x="-2.1649349e-15"
       height="7.9375"
       width="7.9375"
       id="rect951"
       style="fill:#ffffff;fill-opacity:1;fill-rule:evenodd;stroke:none;stroke-width:0.0739588;stroke-linecap:round" />
    <rect
       style="fill:#ffffff;fill-opacity:1;fill-rule:evenodd;stroke:none;stroke-width:0.0739588;stroke-linecap:round"
       id="rect953"
       width="7.9375"
       height="7.9375"
       x="7.9375"
       y="63.977951" />
    <path
       id="path955"
       style="fill:#a4a1aa;fill-opacity:1;fill-rule:evenodd;stroke:none;stroke-width:0.128882;stroke-linecap:round;stroke-opacity:1"
       d="M 3.96875,65.16865 1.190625,68.700218 H 2.5512654 V 70.7249 h 2.8349691 v -2.024682 h 1.3606404 z" />
    <path
       id="path957"
       style="fill:#a4a1aa;fill-opacity:1;fill-rule:evenodd;stroke:none;stroke-width:0.128882;stroke-linecap:round;stroke-opacity:1"
       d="m 10.488765,65.16865 v 2.024166 H 9.1281249 L 11.90625,70.7249 14.684375,67.192816 H 13.323734 V 65.16865 Z" />
    <rect
       style="fill:#ffffff;fill-opacity:1;fill-rule:evenodd;stroke:none;stroke-width:0.0739588;stroke-linecap:round"
       id="rect959"
       width="7.9375"
       height="7.9375"
       x="19.243406"
       y="63.977951" />
    <rect
       y="63.977951"
       x="27.180906"
       height="7.9375"
       width="7.9375"
       id="rect961"
       style="fill:#ffffff;fill-opacity:1;fill-rule:evenodd;stroke:none;stroke-width:0.0739588;stroke-linecap:round" />
    <path
       d="m 23.212156,65.16865 -2.778125,3.531567 h 1.36064 V 70.7249 h 2.83497 v -2.024683 h 1.36064 z"
       style="fill:none;fill-opacity:1;fill-rule:evenodd;stroke:#a4a1aa;stroke-width:0.128882;stroke-linecap:round;stroke-opacity:1"
       id="path963" />
    <path
       d="m 29.732171,65.16865 v 2.024166 h -1.36064 l 2.778125,3.532084 2.778125,-3.532084 H 32.56714 V 65.16865 Z"
       style="fill:none;fill-opacity:1;fill-rule:evenodd;stroke:#a4a1aa;stroke-width:0.128882;stroke-linecap:round;stroke-opacity:1"
       id="path965" />
    <rect
       style="fill:#ffffff;fill-opacity:1;fill-rule:evenodd;stroke:none;stroke-width:0.0739588;stroke-linecap:round"
       id="rect967"
       width="7.9375"
       height="7.9375"
       x="-2.1649349e-15"
       y="75.789711" />
    <rect
       y="75.789711"
       x="7.9375"
       height="7.9375"
       width="7.9375"
       id="rect969"
       style="fill:#ffffff;fill-opacity:1;fill-rule:evenodd;stroke:none;stroke-width:0.0739588;stroke-linecap:round" />
    <path
       d="m 3.96875,76.980406 -2.778125,3.531567 h 1.3606404 v 2.024683 h 2.8349691 v -2.024683 h 1.3606404 z"
       style="fill:#758f49;fill-opacity:1;fill-rule:evenodd;stroke:none;stroke-width:0.128882;stroke-linecap:round;stroke-opacity:1"
       id="path971" />
    <path
       d="m 10.488765,76.980406 v 2.024166 H 9.1281249 l 2.7781251,3.532084 2.778125,-3.532084 h -1.360641 v -2.024166 z"
       style="fill:#758f49;fill-opacity:1;fill-rule:evenodd;stroke:none;stroke-width:0.128882;stroke-linecap:round;stroke-opacity:1"
       id="path973" />
    <rect
       y="75.789711"
       x="18.898809"
       height="7.9375"
       width="7.9375"
       id="rect975"
       style="fill:#ffffff;fill-opacity:1;fill-rule:evenodd;stroke:none;stroke-width:0.0739588;stroke-linecap:round" />
    <rect
       style="fill:#ffffff;fill-opacity:1;fill-rule:evenodd;stroke:none;stroke-width:0.0739588;stroke-linecap:round"
       id="rect977"
       width="7.9375"
       height="7.9375"
       x="26.836309"
       y="75.789711" />
    <path
       id="path979"
       style="fill:none;fill-opacity:1;fill-rule:evenodd;stroke:#758f49;stroke-width:0.128882;stroke-linecap:round;stroke-opacity:1"
       d="m 22.86756,76.980406 -2.778125,3.531567 h 1.36064 v 2.024683 h 2.834969 v -2.024683 h 1.36064 z" />
    <path
       id="path981"
       style="fill:none;fill-opacity:1;fill-rule:evenodd;stroke:#758f49;stroke-width:0.128882;stroke-linecap:round;stroke-opacity:1"
       d="m 29.387575,76.980406 v 2.024166 h -1.360641 l 2.778126,3.532084 2.778125,-3.532084 h -1.360641 v -2.024166 z" />
    <g
       inkscape:export-ydpi="96"
       inkscape:export-xdpi="96"
       id="g893"
       transform="translate(-122.94398,12.828937)">
      <rect
         y="8.8198948"
         x="-192.16679"
         height="67.73333"
         width="67.73333"
         id="rect886"
         style="fill:#ffffff;fill-opacity:0;fill-rule:evenodd;stroke:none;stroke-width:0.631115;stroke-linecap:round" />
      <path
         d="m -163.31398,17.286561 c -0.74034,0 -1.33614,0.595811 -1.33614,1.336146 V 36.33656 h -17.71386 c -0.74033,0 -1.33614,0.595815 -1.33614,1.336147 v 10.027707 c 0,0.740343 0.59581,1.336147 1.33614,1.336147 h 17.71386 v 17.713853 c 0,0.740344 0.59581,1.336146 1.33614,1.336146 h 10.02771 c 0.74034,0 1.33615,-0.595814 1.33615,-1.336146 V 49.036561 h 17.71385 c 0.74034,0 1.33615,-0.595815 1.33615,-1.336147 V 37.672707 c 0,-0.740343 -0.59582,-1.336147 -1.33615,-1.336147 h -17.71385 V 18.622707 c 0,-0.740335 -0.59582,-1.336146 -1.33615,-1.336146 z"
         style="fill:#00d358;fill-opacity:1;fill-rule:evenodd;stroke:none;stroke-width:0.785774;stroke-linecap:round"
         id="path888" />
    </g>
    <g
       id="g900"
       inkscape:export-xdpi="96"
       inkscape:export-ydpi="96">
      <rect
         style="fill:#ffffff;fill-opacity:0;fill-rule:evenodd;stroke:none;stroke-width:0.631115;stroke-linecap:round"
         id="rect889"
         width="67.73333"
         height="67.73333"
         x="-215.23254"
         y="24.588797" />
      <rect
         ry="1.3363494"
         rx="1.3363494"
         transform="scale(-1)"
         style="fill:#e04b4a;fill-opacity:1;fill-rule:evenodd;stroke:none;stroke-width:0.785774;stroke-linecap:round"
         id="rect891"
         width="50.799999"
         height="12.7"
         x="155.9659"
         y="-64.805466" />
    </g>
    <g
       inkscape:export-ydpi="96"
       inkscape:export-xdpi="96"
       id="g936">
      <rect
         style="fill:#ffffff;fill-opacity:0;fill-rule:evenodd;stroke:none;stroke-width:0.631115;stroke-linecap:round"
         id="rect902"
         width="67.733337"
         height="67.733337"
         x="-322.98227"
         y="211.88522" />
      <path
         d="m -289.11557,220.35191 -25.39999,32.28868 h 12.44015 v 18.51136 h 25.91974 v -18.51136 h 12.44016 z"
         style="fill:#a4a1aa;fill-opacity:1;fill-rule:evenodd;stroke:none;stroke-width:1.17835;stroke-linecap:round;stroke-opacity:1"
         id="path904" />
    </g>
    <g
       inkscape:export-ydpi="96"
       inkscape:export-xdpi="96"
       transform="matrix(1.0036397,0,0,1.0036397,-19.627816,2.4360454)"
       id="g940">
      <rect
         y="211.88521"
         x="-188.11346"
         height="67.487701"
         width="67.487701"
         id="rect900"
         style="fill:#ffffff;fill-opacity:0;fill-rule:evenodd;stroke:none;stroke-width:0.628826;stroke-linecap:round" />
      <path
         d="m -167.28252,220.32119 v 18.43955 h -12.39503 l 25.30795,32.17627 25.30787,-32.17627 h -12.39504 v -18.43955 z"
         style="fill:#a4a1aa;fill-opacity:1;fill-rule:evenodd;stroke:none;stroke-width:1.17408;stroke-linecap:round;stroke-opacity:1"
         id="path906" />
    </g>
    <g
       inkscape:export-ydpi="96"
       inkscape:export-xdpi="96"
       transform="matrix(1.0036397,0,0,1.0036397,29.041509,-154.38015)"
       id="g918">
      <g
         id="g926">
        <rect
           style="fill:#ffffff;fill-opacity:0;fill-rule:evenodd;stroke:none;stroke-width:0.628826;stroke-linecap:round"
           id="rect908"
           width="67.487701"
           height="67.487701"
           x="-342.19647"
           y="265.80853" />
        <path
           d="m -308.45263,275.93226 -23.62074,30.02678 h 11.56869 v 17.21462 h 24.10401 v -17.21462 h 11.56869 z"
           style="fill:#758f49;fill-opacity:1;fill-rule:evenodd;stroke:none;stroke-width:1.0958;stroke-linecap:round;stroke-opacity:1"
           id="path912" />
      </g>
    </g>
    <g
       inkscape:export-ydpi="96"
       inkscape:export-xdpi="96"
       transform="matrix(1.0036397,0,0,1.0036397,5.0738216,30.166649)"
       id="g922">
      <rect
         style="fill:#ffffff;fill-opacity:0;fill-rule:evenodd;stroke:none;stroke-width:0.628826;stroke-linecap:round"
         id="rect910"
         width="67.487701"
         height="67.487701"
         x="-219.11673"
         y="82.996185" />
      <path
         id="path914"
         style="fill:#758f49;fill-opacity:1;fill-rule:evenodd;stroke:none;stroke-width:1.0958;stroke-linecap:round;stroke-opacity:1"
         d="m -197.42492,93.119908 v 17.210282 h -11.56869 l 23.62074,30.03112 23.62065,-30.03112 H -173.3209 V 93.119908 Z" />
    </g>
  </g>
</svg>
