<?xml version="1.0" encoding="UTF-8" standalone="no"?>
<svg
   xmlns:dc="http://purl.org/dc/elements/1.1/"
   xmlns:cc="http://creativecommons.org/ns#"
   xmlns:rdf="http://www.w3.org/1999/02/22-rdf-syntax-ns#"
   xmlns:svg="http://www.w3.org/2000/svg"
   xmlns="http://www.w3.org/2000/svg"
   width="30"
   height="30"
   viewBox="0 0 7.9374998 7.9375002"
   version="1.1"
   id="svg8">
  <defs
     id="defs2" />
  <metadata
     id="metadata5">
    <rdf:RDF>
      <cc:Work
         rdf:about="">
        <dc:format>image/svg+xml</dc:format>
        <dc:type
           rdf:resource="http://purl.org/dc/dcmitype/StillImage" />
        <dc:title></dc:title>
      </cc:Work>
    </rdf:RDF>
  </metadata>
  <g
     id="layer1">
    <g
       id="g1056">
      <rect
         y="-1.7763568e-15"
         x="-2.1649349e-15"
         height="7.9375"
         width="7.9375"
         id="rect833"
         style="fill:#ffffff;fill-opacity:1;fill-rule:evenodd;stroke:none;stroke-width:0.0739588;stroke-linecap:round" />
      <path
         d="m 3.381189,0.99218749 c -0.086759,0 -0.1565797,0.0698216 -0.1565797,0.15657961 V 3.2246093 H 1.1487671 c -0.086758,0 -0.15657961,0.069822 -0.15657961,0.1565797 v 1.1751219 c 0,0.086759 0.0698216,0.1565797 0.15657961,0.1565797 h 2.0758422 v 2.0758422 c 0,0.086759 0.069822,0.1565796 0.1565797,0.1565796 h 1.1751219 c 0.086759,0 0.1565797,-0.069822 0.1565797,-0.1565796 V 4.7128906 h 2.0758422 c 0.086759,0 0.1565796,-0.069822 0.1565796,-0.1565797 V 3.381189 c 0,-0.086759 -0.069822,-0.1565797 -0.1565796,-0.1565797 H 4.7128906 V 1.1487671 c 0,-0.086758 -0.069822,-0.15657961 -0.1565797,-0.15657961 z"
         style="fill:#00d358;fill-opacity:1;fill-rule:evenodd;stroke:none;stroke-width:0.0920829;stroke-linecap:round"
         id="rect837" />
    </g>
    <g
       id="g1052">
      <rect
         style="fill:#ffffff;fill-opacity:1;fill-rule:evenodd;stroke:none;stroke-width:0.0739588;stroke-linecap:round"
         id="rect856"
         width="7.9375"
         height="7.9375"
         x="8.7393084"
         y="-1.7763568e-15" />
      <rect
         ry="0.15660344"
         rx="0.15660344"
         transform="scale(-1)"
         style="fill:#e04b4a;fill-opacity:1;fill-rule:evenodd;stroke:none;stroke-width:0.0920829;stroke-linecap:round"
         id="rect860"
         width="5.953125"
         height="1.4882812"
         x="-15.68462"
         y="-4.7128906" />
    </g>
    <g
       id="g1044">
      <rect
         style="fill:#ffffff;fill-opacity:1;fill-rule:evenodd;stroke:none;stroke-width:0.0739588;stroke-linecap:round"
         id="rect862"
         width="7.9375"
         height="7.9375"
         x="18.993303"
         y="0.4272888" />
      <g
         id="g1013">
        <path
           id="rect866"
           style="fill:none;fill-opacity:1;fill-rule:evenodd;stroke:#00d358;stroke-width:0.0906803;stroke-linecap:round;stroke-opacity:1"
           d="m 22.383442,1.4648165 c -0.08544,0 -0.154194,0.068755 -0.154194,0.1541945 v 2.0442222 h -2.044222 c -0.08544,0 -0.154195,0.068757 -0.154195,0.1541945 v 1.1572221 c 0,0.085441 0.06876,0.1541945 0.154195,0.1541945 h 2.044222 v 2.0442223 c 0,0.085431 0.06876,0.1541945 0.154194,0.1541945 h 1.157223 c 0.08544,0 0.154194,-0.068757 0.154194,-0.1541945 V 5.1288443 h 2.044222 c 0.08544,0 0.154194,-0.068755 0.154194,-0.1541945 V 3.8174277 c 0,-0.085433 -0.06876,-0.1541945 -0.154194,-0.1541945 H 23.694859 V 1.619011 c 0,-0.085433 -0.06876,-0.1541945 -0.154194,-0.1541945 z" />
      </g>
    </g>
    <g
       id="g1048">
      <rect
         y="0.4272888"
         x="27.832838"
         height="7.9375"
         width="7.9375"
         id="rect868"
         style="fill:#ffffff;fill-opacity:1;fill-rule:evenodd;stroke:none;stroke-width:0.0739588;stroke-linecap:round" />
      <rect
         y="-5.0968208"
         x="-34.732811"
         height="1.4015638"
         width="5.8624449"
         id="rect870"
         style="fill:none;fill-opacity:1;fill-rule:evenodd;stroke:#e04b4a;stroke-width:0.0886768;stroke-linecap:round;stroke-opacity:1"
         transform="scale(-1)"
         rx="0.154218"
         ry="0.14747864" />
    </g>
    <rect
       style="fill:#ffffff;fill-opacity:1;fill-rule:evenodd;stroke:none;stroke-width:0.0739588;stroke-linecap:round"
       id="rect881"
       width="7.9375"
       height="7.9375"
       x="7.9375"
       y="12.662203" />
    <rect
       y="12.662203"
       x="-1.7008929"
       height="7.9375"
       width="7.9375"
       id="rect875"
       style="fill:#ffffff;fill-opacity:1;fill-rule:evenodd;stroke:none;stroke-width:0.0739588;stroke-linecap:round" />
    <path
       id="rect885"
       style="fill:#a4a1aa;fill-opacity:1;fill-rule:evenodd;stroke:none;stroke-width:0.138088;stroke-linecap:round;stroke-opacity:1"
       d="m 2.2678571,13.65439 -2.97656253,3.783822 h 1.45782906 v 2.169303 H 3.7865906 v -2.169303 h 1.457829 z" />
    <path
       id="path895"
       style="fill:#a4a1aa;fill-opacity:1;fill-rule:evenodd;stroke:none;stroke-width:0.138088;stroke-linecap:round;stroke-opacity:1"
       d="m 10.387517,13.65439 v 2.168749 H 8.9296875 l 2.9765625,3.784376 2.976563,-3.784376 H 13.424984 V 13.65439 Z" />
    <g
       id="g1039">
      <rect
         y="12.662203"
         x="19.243406"
         height="7.9375"
         width="7.9375"
         id="rect909"
         style="fill:#ffffff;fill-opacity:1;fill-rule:evenodd;stroke:none;stroke-width:0.0739588;stroke-linecap:round" />
      <path
         id="path913"
         style="fill:none;fill-opacity:1;fill-rule:evenodd;stroke:#a4a1aa;stroke-width:0.131793;stroke-linecap:round;stroke-opacity:1"
         d="m 23.212156,13.810412 -2.840882,3.611345 h 1.391377 v 2.07042 h 2.899011 v -2.07042 h 1.391376 z" />
    </g>
    <g
       id="g1035">
      <rect
         style="fill:#ffffff;fill-opacity:1;fill-rule:evenodd;stroke:none;stroke-width:0.0739588;stroke-linecap:round"
         id="rect911"
         width="7.9375"
         height="7.9375"
         x="28.456575"
         y="12.662203" />
      <path
         id="path915"
         style="fill:none;fill-opacity:1;fill-rule:evenodd;stroke:#a4a1aa;stroke-width:0.131794;stroke-linecap:round;stroke-opacity:1"
         d="m 30.975815,13.769712 v 2.0699 h -1.391382 l 2.840893,3.611888 2.840894,-3.611888 h -1.391383 v -2.0699 z" />
    </g>
    <rect
       style="fill:#ffffff;fill-opacity:1;fill-rule:evenodd;stroke:none;stroke-width:0.0739588;stroke-linecap:round"
       id="rect917"
       width="7.9375"
       height="7.9375"
       x="-2.1649349e-15"
       y="24.473959" />
    <rect
       y="24.473959"
       x="7.9375"
       height="7.9375"
       width="7.9375"
       id="rect919"
       style="fill:#ffffff;fill-opacity:1;fill-rule:evenodd;stroke:none;stroke-width:0.0739588;stroke-linecap:round" />
    <path
       d="m 3.96875,25.664657 -2.778125,3.531567 h 1.3606404 v 2.024683 h 2.8349691 v -2.024683 h 1.3606404 z"
       style="fill:#758f49;fill-opacity:1;fill-rule:evenodd;stroke:none;stroke-width:0.128882;stroke-linecap:round;stroke-opacity:1"
       id="path921" />
    <path
       d="m 10.488765,25.664657 v 2.024166 H 9.1281249 l 2.7781251,3.532084 2.778125,-3.532084 h -1.360641 v -2.024166 z"
       style="fill:#758f49;fill-opacity:1;fill-rule:evenodd;stroke:none;stroke-width:0.128882;stroke-linecap:round;stroke-opacity:1"
       id="path923" />
    <rect
       y="24.473959"
       x="18.898809"
       height="7.9375"
       width="7.9375"
       id="rect925"
       style="fill:#ffffff;fill-opacity:1;fill-rule:evenodd;stroke:none;stroke-width:0.0739588;stroke-linecap:round" />
    <rect
       style="fill:#ffffff;fill-opacity:1;fill-rule:evenodd;stroke:none;stroke-width:0.0739588;stroke-linecap:round"
       id="rect927"
       width="7.9375"
       height="7.9375"
       x="26.836309"
       y="24.473959" />
    <path
       id="path929"
       style="fill:none;fill-opacity:1;fill-rule:evenodd;stroke:#758f49;stroke-width:0.128882;stroke-linecap:round;stroke-opacity:1"
       d="m 22.86756,25.664657 -2.778125,3.531567 h 1.36064 v 2.024683 h 2.834969 v -2.024683 h 1.36064 z" />
    <path
       id="path931"
       style="fill:none;fill-opacity:1;fill-rule:evenodd;stroke:#758f49;stroke-width:0.128882;stroke-linecap:round;stroke-opacity:1"
       d="m 29.387575,25.664657 v 2.024166 h -1.360641 l 2.778126,3.532084 2.778125,-3.532084 h -1.360641 v -2.024166 z" />
    <rect
       y="51.31575"
       x="-2.1649349e-15"
       height="7.9375"
       width="7.9375"
       id="rect933"
       style="fill:#ffffff;fill-opacity:1;fill-rule:evenodd;stroke:none;stroke-width:0.0739588;stroke-linecap:round" />
    <rect
       ry="0.15660344"
       rx="0.15660344"
       transform="rotate(90)"
       style="fill:#00d358;fill-opacity:1;fill-rule:evenodd;stroke:none;stroke-width:0.0920829;stroke-linecap:round"
       id="rect935"
       width="5.953125"
       height="1.4882812"
       x="52.307938"
       y="-4.7128906" />
    <rect
       y="-56.028641"
       x="-6.9453125"
       height="1.4882812"
       width="5.953125"
       id="rect937"
       style="fill:#00d358;fill-opacity:1;fill-rule:evenodd;stroke:none;stroke-width:0.0920829;stroke-linecap:round"
       transform="scale(-1)"
       rx="0.15660344"
       ry="0.15660344" />
    <rect
       style="fill:#ffffff;fill-opacity:1;fill-rule:evenodd;stroke:none;stroke-width:0.0739588;stroke-linecap:round"
       id="rect939"
       width="7.9375"
       height="7.9375"
       x="7.9375"
       y="51.31575" />
    <rect
       ry="0.15660344"
       rx="0.15660344"
       transform="scale(-1)"
       style="fill:#e04b4a;fill-opacity:1;fill-rule:evenodd;stroke:none;stroke-width:0.0920829;stroke-linecap:round"
       id="rect941"
       width="5.953125"
       height="1.4882812"
       x="-14.882812"
       y="-56.028641" />
    <rect
       style="fill:#ffffff;fill-opacity:1;fill-rule:evenodd;stroke:none;stroke-width:0.0739588;stroke-linecap:round"
       id="rect943"
       width="7.9375"
       height="7.9375"
       x="18.993303"
       y="51.743038" />
    <path
       d="m 22.374493,52.735375 c -0.08676,0 -0.15658,0.06982 -0.15658,0.156579 v 2.075842 h -2.075842 c -0.08676,0 -0.15658,0.06982 -0.15658,0.15658 v 1.175122 c 0,0.08676 0.06982,0.15658 0.15658,0.15658 h 2.075842 v 2.075842 c 0,0.08675 0.06982,0.156579 0.15658,0.156579 h 1.175122 c 0.08676,0 0.156579,-0.06982 0.156579,-0.156579 v -2.075842 h 2.075842 c 0.08676,0 0.15658,-0.06982 0.15658,-0.15658 v -1.175122 c 0,-0.08675 -0.06982,-0.15658 -0.15658,-0.15658 h -2.075842 v -2.075842 c 0,-0.08675 -0.06982,-0.156579 -0.156579,-0.156579 z"
       style="fill:none;fill-opacity:1;fill-rule:evenodd;stroke:#00d358;stroke-width:0.0920829;stroke-linecap:round;stroke-opacity:1"
       id="path945" />
    <rect
       y="51.743038"
       x="26.930803"
       height="7.9375"
       width="7.9375"
       id="rect947"
       style="fill:#ffffff;fill-opacity:1;fill-rule:evenodd;stroke:none;stroke-width:0.0739588;stroke-linecap:round" />
    <rect
       y="-56.455929"
       x="-33.876114"
       height="1.4882812"
       width="5.953125"
       id="rect949"
       style="fill:none;fill-opacity:1;fill-rule:evenodd;stroke:#e04b4a;stroke-width:0.0920829;stroke-linecap:round;stroke-opacity:1"
       transform="scale(-1)"
       rx="0.15660344"
       ry="0.15660344" />
    <rect
       style="fill:#ffffff;fill-opacity:1;fill-rule:evenodd;stroke:none;stroke-width:0.0739588;stroke-linecap:round"
       id="rect951"
       width="7.9375"
       height="7.9375"
       x="-2.1649349e-15"
       y="63.977951" />
    <rect
       y="63.977951"
       x="7.9375"
       height="7.9375"
       width="7.9375"
       id="rect953"
       style="fill:#ffffff;fill-opacity:1;fill-rule:evenodd;stroke:none;stroke-width:0.0739588;stroke-linecap:round" />
    <path
       d="M 3.96875,65.16865 1.190625,68.700218 H 2.5512654 V 70.7249 h 2.8349691 v -2.024682 h 1.3606404 z"
       style="fill:#a4a1aa;fill-opacity:1;fill-rule:evenodd;stroke:none;stroke-width:0.128882;stroke-linecap:round;stroke-opacity:1"
       id="path955" />
    <path
       d="m 10.488765,65.16865 v 2.024166 H 9.1281249 L 11.90625,70.7249 14.684375,67.192816 H 13.323734 V 65.16865 Z"
       style="fill:#a4a1aa;fill-opacity:1;fill-rule:evenodd;stroke:none;stroke-width:0.128882;stroke-linecap:round;stroke-opacity:1"
       id="path957" />
    <rect
       y="63.977951"
       x="19.243406"
       height="7.9375"
       width="7.9375"
       id="rect959"
       style="fill:#ffffff;fill-opacity:1;fill-rule:evenodd;stroke:none;stroke-width:0.0739588;stroke-linecap:round" />
    <rect
       style="fill:#ffffff;fill-opacity:1;fill-rule:evenodd;stroke:none;stroke-width:0.0739588;stroke-linecap:round"
       id="rect961"
       width="7.9375"
       height="7.9375"
       x="27.180906"
       y="63.977951" />
    <path
       id="path963"
       style="fill:none;fill-opacity:1;fill-rule:evenodd;stroke:#a4a1aa;stroke-width:0.128882;stroke-linecap:round;stroke-opacity:1"
       d="m 23.212156,65.16865 -2.778125,3.531567 h 1.36064 V 70.7249 h 2.83497 v -2.024683 h 1.36064 z" />
    <path
       id="path965"
       style="fill:none;fill-opacity:1;fill-rule:evenodd;stroke:#a4a1aa;stroke-width:0.128882;stroke-linecap:round;stroke-opacity:1"
       d="m 29.732171,65.16865 v 2.024166 h -1.36064 l 2.778125,3.532084 2.778125,-3.532084 H 32.56714 V 65.16865 Z" />
    <rect
       y="75.789711"
       x="-2.1649349e-15"
       height="7.9375"
       width="7.9375"
       id="rect967"
       style="fill:#ffffff;fill-opacity:1;fill-rule:evenodd;stroke:none;stroke-width:0.0739588;stroke-linecap:round" />
    <rect
       style="fill:#ffffff;fill-opacity:1;fill-rule:evenodd;stroke:none;stroke-width:0.0739588;stroke-linecap:round"
       id="rect969"
       width="7.9375"
       height="7.9375"
       x="7.9375"
       y="75.789711" />
    <path
       id="path971"
       style="fill:#758f49;fill-opacity:1;fill-rule:evenodd;stroke:none;stroke-width:0.128882;stroke-linecap:round;stroke-opacity:1"
       d="m 3.96875,76.980406 -2.778125,3.531567 h 1.3606404 v 2.024683 h 2.8349691 v -2.024683 h 1.3606404 z" />
    <path
       id="path973"
       style="fill:#758f49;fill-opacity:1;fill-rule:evenodd;stroke:none;stroke-width:0.128882;stroke-linecap:round;stroke-opacity:1"
       d="m 10.488765,76.980406 v 2.024166 H 9.1281249 l 2.7781251,3.532084 2.778125,-3.532084 h -1.360641 v -2.024166 z" />
    <rect
       style="fill:#ffffff;fill-opacity:1;fill-rule:evenodd;stroke:none;stroke-width:0.0739588;stroke-linecap:round"
       id="rect975"
       width="7.9375"
       height="7.9375"
       x="18.898809"
       y="75.789711" />
    <rect
       y="75.789711"
       x="26.836309"
       height="7.9375"
       width="7.9375"
       id="rect977"
       style="fill:#ffffff;fill-opacity:1;fill-rule:evenodd;stroke:none;stroke-width:0.0739588;stroke-linecap:round" />
    <path
       d="m 22.86756,76.980406 -2.778125,3.531567 h 1.36064 v 2.024683 h 2.834969 v -2.024683 h 1.36064 z"
       style="fill:none;fill-opacity:1;fill-rule:evenodd;stroke:#758f49;stroke-width:0.128882;stroke-linecap:round;stroke-opacity:1"
       id="path979" />
    <path
       d="m 29.387575,76.980406 v 2.024166 h -1.360641 l 2.778126,3.532084 2.778125,-3.532084 h -1.360641 v -2.024166 z"
       style="fill:none;fill-opacity:1;fill-rule:evenodd;stroke:#758f49;stroke-width:0.128882;stroke-linecap:round;stroke-opacity:1"
       id="path981" />
  </g>
</svg>
